<svg width="63" height="56" viewBox="0 0 63 56" fill="none" xmlns="http://www.w3.org/2000/svg">
<path d="M56.814 31.5712C52.2728 31.5712 50.3062 35.0267 47.8389 35.0267C41.2791 35.0267 47.25 15.75 47.25 15.75C47.25 15.75 25.781 24.5 25.781 15.3894C25.781 11.4708 29.75 10.3308 29.75 5.98479C29.75 2.10175 26.6749 0 23.0277 0C19.2374 0 15.7689 2.06621 15.7689 6.16285C15.7689 10.687 19.2373 12.6463 19.2373 15.1043C19.2374 22.7193 0 18.2392 0 18.2392V54.687C0 54.687 19.5382 59.1765 19.5382 51.5521C19.5382 49.0941 15.1632 47.1654 15.1632 42.6412C15.1632 38.5444 18.3624 36.4783 22.1169 36.4783C25.7999 36.4783 28.875 38.5801 28.875 42.463C28.875 46.809 24.906 47.9491 24.906 51.8676C24.906 58.518 39.0892 54.6819 44.728 54.6819C44.728 54.6819 40.93 41.5458 47.5529 41.5458C51.4862 41.5458 52.6304 45.4999 56.9928 45.4999C60.8904 45.5 63 42.4364 63 38.7672C63 35.0267 60.926 31.5712 56.814 31.5712Z" fill="url(#paint0_linear)"/>
<defs>
<linearGradient id="paint0_linear" x1="31.2595" y1="86.4348" x2="-0.652854" y2="16.856" gradientUnits="userSpaceOnUse">
<stop stop-color="#0043A7"/>
<stop offset="1" stop-color="#6377E3"/>
</linearGradient>
</defs>
</svg>
