<svg width="55" height="55" viewBox="0 0 55 55" fill="none" xmlns="http://www.w3.org/2000/svg">
<path d="M24.7904 0.496582V5.96742C12.9008 7.42992 4.47792 18.2362 5.94042 30.1257C7.18626 39.9841 14.9321 47.8112 24.7904 48.9757V54.3924C9.89459 52.9028 -0.938751 39.6862 0.550835 24.7903C1.76958 11.9257 11.98 1.7695 24.7904 0.496582ZM30.2071 0.577832C35.4883 1.09242 40.5258 3.12367 44.6425 6.53617L40.7696 10.5445C37.7363 8.107 34.08 6.53617 30.2071 5.9945V0.577832ZM48.4613 10.3549C51.8476 14.4644 53.9315 19.4904 54.4467 24.7903H49.03C48.5154 20.9445 46.9988 17.2882 44.5883 14.2278L48.4613 10.3549ZM54.4196 30.207C53.8779 35.5153 51.7925 40.5257 48.4342 44.6424L44.5883 40.7695C46.98 37.708 48.5047 34.0599 49.0029 30.207H54.4196ZM40.7696 44.7507L44.6425 48.4612C40.54 51.881 35.5174 54.0106 30.2071 54.582V49.1653C34.06 48.6671 37.7081 47.1424 40.7696 44.7507ZM14.4446 36.1382L25.5758 25.007C24.4654 22.1903 25.0883 18.8862 27.4175 16.5841C29.855 14.1195 33.5113 13.632 36.4633 14.9862L31.2092 20.2403L34.8654 23.9237L40.255 18.6424C41.7175 21.5945 41.0404 25.2507 38.6571 27.7153C36.3279 30.0445 33.0238 30.6403 30.2071 29.557L19.0758 40.6612C18.5883 41.1758 17.8571 41.1758 17.3696 40.6612L14.5529 37.8716C13.9571 37.3841 13.9571 36.5174 14.4446 36.1382Z" fill="url(#paint0_linear)"/>
<defs>
<linearGradient id="paint0_linear" x1="27.6365" y1="83.9762" x2="60.7991" y2="19.768" gradientUnits="userSpaceOnUse">
<stop stop-color="#0043A7"/>
<stop offset="1" stop-color="#6377E3"/>
</linearGradient>
</defs>
</svg>
