<svg width="59" height="56" viewBox="0 0 59 56" fill="none" xmlns="http://www.w3.org/2000/svg">
<path fill-rule="evenodd" clip-rule="evenodd" d="M59 50.4135C59 53.498 56.539 56 53.5 56C50.4647 56 48 53.501 48 50.4135C48 47.332 53.5 41 53.5 41C53.5 41 59 47.332 59 50.4135Z" fill="url(#paint0_linear)"/>
<path fill-rule="evenodd" clip-rule="evenodd" d="M54.2923 23.8907C49.815 19.3842 43.6992 18.8096 37.078 18.735V18.6828C37.078 16.6944 35.692 15.0753 33.9792 15.0753H29.5725V10.8672C32.2031 10.4979 34.321 9.11383 35.1979 7.29331C36.1714 7.72605 37.5015 7.99839 38.9729 7.99839C41.9491 7.99839 44.3568 6.90159 44.3568 5.53993C44.3568 4.18199 41.9491 3.08147 38.9729 3.08147C37.696 3.05873 36.4275 3.29342 35.2425 3.77163C34.2541 1.5855 31.4711 0 28.1568 0C24.9242 0 22.197 1.4997 21.1418 3.59629C20.0902 3.14862 18.6635 2.87256 17.0806 2.87256C13.8443 2.87256 11.2285 4.02531 11.2285 5.4392C11.2285 6.85683 13.8443 8.00212 17.0806 8.00212C18.6449 8.00212 20.0568 7.72978 21.1083 7.29331C21.8886 8.92357 23.6721 10.1845 25.9349 10.7031V15.0791H21.5951C19.8896 15.0791 18.5037 16.6981 18.5037 18.6865V18.7238H5.26129C2.53404 18.7238 0 21.339 0 24.0922C0 26.8416 2.2145 29.5537 4.94175 29.5537H18.5148C18.5408 31.5198 19.9082 33.109 21.5988 33.109H33.9829C35.6586 33.109 36.9999 31.5533 37.0594 29.6246C41.507 29.8074 45.1743 30.4379 46.9986 32.2696C48.0278 33.3067 48.8453 34.687 49.2911 37H59C58.4167 31.7585 57.0753 26.6961 54.2923 23.8907Z" fill="url(#paint1_linear)"/>
<defs>
<linearGradient id="paint0_linear" x1="53.458" y1="64.1522" x2="42.8419" y2="49.0641" gradientUnits="userSpaceOnUse">
<stop stop-color="#0043A7"/>
<stop offset="1" stop-color="#6377E3"/>
</linearGradient>
<linearGradient id="paint1_linear" x1="29.2748" y1="57.1087" x2="12.9765" y2="6.74018" gradientUnits="userSpaceOnUse">
<stop stop-color="#0043A7"/>
<stop offset="1" stop-color="#6377E3"/>
</linearGradient>
</defs>
</svg>
