<svg width="74" height="65" viewBox="0 0 74 65" fill="none" xmlns="http://www.w3.org/2000/svg">
<path d="M56.8905 42.5566L44.8565 22.6758V6.75H45.6779C47.0436 6.75 48.1422 5.62148 48.1422 4.21875V2.53125C48.1422 1.12852 47.0436 0 45.6779 0H24.3206C22.9549 0 21.8563 1.12852 21.8563 2.53125V4.21875C21.8563 5.62148 22.9549 6.75 24.3206 6.75H25.142V22.6758L13.108 42.5566C10.0995 47.5242 13.57 54 19.279 54H50.7195C56.4388 54 59.8991 47.5137 56.8905 42.5566ZM26.1585 33.75L31.1077 25.5656C31.4876 25.0172 31.7032 24.3422 31.7032 23.625V6.75H38.2747V23.625C38.2747 24.3527 38.5006 25.0172 38.8703 25.5656L43.8194 33.75H26.1585Z" fill="url(#paint0_linear)"/>
<path d="M17.2101 65H4L60.7899 7.75503H74L17.2101 65Z" fill="white"/>
<path d="M13.2101 65H0L56.7899 7.75503H70L13.2101 65Z" fill="url(#paint1_linear)"/>
<defs>
<linearGradient id="paint0_linear" x1="34.8244" y1="83.3478" x2="-1.16155" y2="23.9374" gradientUnits="userSpaceOnUse">
<stop stop-color="#0043A7"/>
<stop offset="1" stop-color="#6377E3"/>
</linearGradient>
<linearGradient id="paint1_linear" x1="34.7328" y1="96.5217" x2="3.20511" y2="22.7776" gradientUnits="userSpaceOnUse">
<stop stop-color="#0043A7"/>
<stop offset="1" stop-color="#6377E3"/>
</linearGradient>
</defs>
</svg>
