<svg width="64" height="56" viewBox="0 0 64 56" fill="none" xmlns="http://www.w3.org/2000/svg">
<path d="M62.8076 35.8466C61.4966 34.674 59.4523 34.7507 58.0746 35.8466L47.8085 43.9452C46.553 44.9425 44.9864 45.4795 43.3643 45.4795H30.2206C29.2428 45.4795 28.4429 44.6904 28.4429 43.726C28.4429 42.7616 29.2428 41.9726 30.2206 41.9726H38.9201C40.6866 41.9726 42.331 40.7781 42.6199 39.0575C42.9865 36.8658 41.2755 34.9589 39.109 34.9589H21.3322C18.3323 34.9589 15.4325 35.9781 13.0993 37.8411L7.9329 41.9726H1.77768C0.799956 41.9726 0 42.7616 0 43.726V54.2466C0 55.211 0.799956 56 1.77768 56H41.4199C43.031 56 44.5975 55.463 45.8641 54.4658L62.6632 41.2055C64.352 39.8795 64.4853 37.337 62.8076 35.8466Z" fill="url(#paint0_linear)"/>
<path d="M41.5365 23.8136C41.4534 23.4001 41.041 23.1354 40.6244 23.2292C39.9482 23.3813 38.8902 23.5669 37.7517 23.5669C34.162 23.5669 31.3057 21.3967 30.0705 18.2367H37.2602C37.4325 18.2367 37.5997 18.1789 37.7343 18.0727C37.8689 17.9664 37.9628 17.8182 38.0006 17.6523L38.4036 15.8833C38.5102 15.4153 38.1494 14.9706 37.6632 14.9706H29.1741C29.0976 14.0769 29.0847 13.2062 29.1828 12.3355H38.4532C38.6263 12.3355 38.7942 12.2772 38.929 12.1701C39.0639 12.0631 39.1576 11.9138 39.1946 11.747L39.6064 9.89098C39.71 9.42415 39.3496 8.98239 38.865 8.98239H30.1204C31.4253 6.17595 34.0849 4.30219 37.5586 4.30219C38.4747 4.30219 39.365 4.44254 39.9523 4.56074C40.3454 4.63984 40.7331 4.40493 40.8377 4.02286L41.596 1.25529C41.7113 0.834801 41.4402 0.405954 41.0063 0.324801C40.2408 0.181644 39.0072 0 37.6744 0C31.5286 0 26.5693 3.75838 24.7382 8.98239H22.6466C22.2275 8.98239 21.8877 9.31754 21.8877 9.73092V11.587C21.8877 12.0003 22.2275 12.3355 22.6466 12.3355H24.0106C23.9468 13.1843 23.9359 14.1624 23.9991 14.9706H22.6466C22.2275 14.9706 21.8877 15.3058 21.8877 15.7192V17.4882C21.8877 17.9016 22.2275 18.2367 22.6466 18.2367H24.5509C26.1335 23.8714 31.0741 27.9452 37.6744 27.9452C39.3377 27.9452 40.7455 27.6618 41.5384 27.4594C41.9284 27.3599 42.1725 26.9786 42.0942 26.5888L41.5365 23.8136Z" fill="url(#paint1_linear)"/>
<defs>
<linearGradient id="paint0_linear" x1="31.7557" y1="86.4348" x2="0.17176" y2="16.479" gradientUnits="userSpaceOnUse">
<stop stop-color="#0043A7"/>
<stop offset="1" stop-color="#6377E3"/>
</linearGradient>
<linearGradient id="paint1_linear" x1="31.7557" y1="86.4348" x2="0.17176" y2="16.479" gradientUnits="userSpaceOnUse">
<stop stop-color="#0043A7"/>
<stop offset="1" stop-color="#6377E3"/>
</linearGradient>
</defs>
</svg>
