<svg width="52" height="46" viewBox="0 0 52 46" fill="none" xmlns="http://www.w3.org/2000/svg">
<path d="M49.3095 0.873492C48.8039 -0.249404 47.3593 -0.29432 46.7544 0.765694C43.9555 5.60762 38.9446 8.62597 33.2204 8.62597H25.9975C16.4272 8.62597 8.66255 16.3515 8.66255 25.8737C8.66255 26.5025 8.73478 27.1043 8.79798 27.7152C14.5582 23.6099 22.8736 20.1244 34.665 20.1244C35.4595 20.1244 36.1096 20.7712 36.1096 21.5617C36.1096 22.3523 35.4595 22.999 34.665 22.999C11.967 22.999 2.34251 36.8421 0.211747 42.0434C-0.384143 43.5076 0.320091 45.1785 1.79176 45.7804C3.27245 46.3912 4.95178 45.6815 5.56573 44.2263C5.70116 43.9029 7.45271 39.9233 12.0573 36.0875C14.9826 40.0311 20.5442 43.7951 27.8484 43.0225C42.0234 41.9984 52 29.3501 52 13.8632C52 9.35361 51.0249 4.68236 49.3095 0.873492Z" fill="url(#paint0_linear)"/>
<defs>
<linearGradient id="paint0_linear" x1="25.8015" y1="71" x2="-0.329764" y2="13.7505" gradientUnits="userSpaceOnUse">
<stop stop-color="#0043A7"/>
<stop offset="1" stop-color="#6377E3"/>
</linearGradient>
</defs>
</svg>
